<svg width="247" height="48" viewBox="0 0 247 48" fill="none" xmlns="http://www.w3.org/2000/svg">
<path d="M28.5137 31.9062H37.8575C37.67 34.9688 36.8262 37.6875 35.3262 40.0625C33.8471 42.4375 31.7742 44.2917 29.1075 45.625C26.4617 46.9583 23.2742 47.625 19.545 47.625C16.6283 47.625 14.0137 47.125 11.7012 46.125C9.38875 45.1042 7.40958 43.6458 5.76375 41.75C4.13875 39.8542 2.89916 37.5625 2.045 34.875C1.19083 32.1875 0.763748 29.1771 0.763748 25.8438V22.6875C0.763748 19.3542 1.20125 16.3438 2.07625 13.6562C2.97208 10.9479 4.24291 8.64583 5.88875 6.75C7.55541 4.85417 9.545 3.39583 11.8575 2.375C14.17 1.35417 16.7533 0.84375 19.6075 0.84375C23.3992 0.84375 26.5971 1.53125 29.2012 2.90625C31.8262 4.28125 33.8575 6.17708 35.295 8.59375C36.7533 11.0104 37.6283 13.7604 37.92 16.8438H28.545C28.4408 15.0104 28.0762 13.4583 27.4512 12.1875C26.8262 10.8958 25.8783 9.92708 24.6075 9.28125C23.3575 8.61458 21.6908 8.28125 19.6075 8.28125C18.045 8.28125 16.6804 8.57292 15.5137 9.15625C14.3471 9.73958 13.3679 10.625 12.5762 11.8125C11.7846 13 11.1908 14.5 10.795 16.3125C10.42 18.1042 10.2325 20.2083 10.2325 22.625V25.8438C10.2325 28.1979 10.4096 30.2708 10.7637 32.0625C11.1179 33.8333 11.6596 35.3333 12.3887 36.5625C13.1387 37.7708 14.0971 38.6875 15.2637 39.3125C16.4512 39.9167 17.8783 40.2188 19.545 40.2188C21.5033 40.2188 23.1179 39.9062 24.3887 39.2812C25.6596 38.6562 26.6283 37.7292 27.295 36.5C27.9825 35.2708 28.3887 33.7396 28.5137 31.9062ZM69.5537 9.28125L57.1787 47H47.21L64.1162 1.5H70.46L69.5537 9.28125ZM79.835 47L67.4287 9.28125L66.4287 1.5H72.835L89.835 47H79.835ZM79.2725 30.0625V37.4062H55.2412V30.0625H79.2725ZM101.094 1.5H118.062C121.542 1.5 124.531 2.02083 127.031 3.0625C129.552 4.10417 131.49 5.64583 132.844 7.6875C134.198 9.72917 134.875 12.2396 134.875 15.2188C134.875 17.6562 134.458 19.75 133.625 21.5C132.812 23.2292 131.656 24.6771 130.156 25.8438C128.677 26.9896 126.938 27.9062 124.938 28.5938L121.969 30.1562H107.219L107.156 22.8438H118.125C119.771 22.8438 121.135 22.5521 122.219 21.9688C123.302 21.3854 124.115 20.5729 124.656 19.5312C125.219 18.4896 125.5 17.2812 125.5 15.9062C125.5 14.4479 125.229 13.1875 124.688 12.125C124.146 11.0625 123.323 10.25 122.219 9.6875C121.115 9.125 119.729 8.84375 118.062 8.84375H110.469V47H101.094V1.5ZM126.531 47L116.156 26.7188L126.062 26.6562L136.562 46.5625V47H126.531ZM153.415 1.5H161.352L173.04 34.9062L184.727 1.5H192.665L176.227 47H169.852L153.415 1.5ZM149.134 1.5H157.04L158.477 34.0625V47H149.134V1.5ZM189.04 1.5H196.977V47H187.602V34.0625L189.04 1.5ZM217.611 1.5L227.111 22.25L236.611 1.5H246.83L231.861 30.4375V47H222.361V30.4375L207.361 1.5H217.611Z" fill="#61398F"/>
</svg>
