<svg width="281" height="281" viewBox="0 0 281 281" fill="none" xmlns="http://www.w3.org/2000/svg">
<path d="M129.172 107.008C131.277 104.96 134.693 104.96 136.742 107.064L129.172 107.008ZM72.0386 145.646C72.0386 142.687 74.4857 140.24 77.445 140.24C80.4042 140.24 82.8513 142.687 82.8513 145.646C82.8513 169.092 92.3555 190.261 107.72 205.625C123.084 220.989 144.253 230.493 167.699 230.493C183.575 230.493 198.427 226.112 211.116 218.542C222.441 211.772 232.001 202.496 239.114 191.399L208.953 181.327C204.287 186.733 198.541 191.171 192.111 194.414C184.714 198.114 176.462 200.219 167.699 200.219C164.739 200.219 162.292 197.771 162.292 194.812C162.292 191.856 164.739 189.409 167.699 189.409C174.753 189.409 181.412 187.758 187.331 184.799C193.419 181.725 198.711 177.288 202.809 171.823C204.173 170.002 206.564 169.206 208.842 169.947L248.673 183.203C249.072 183.318 249.414 183.432 249.757 183.66C252.373 185.083 253.342 188.326 251.975 190.943C243.779 206.137 231.547 218.94 216.692 227.762C202.352 236.298 185.624 241.247 167.754 241.247C141.349 241.247 117.449 230.549 100.15 213.25C82.7371 195.951 72.0386 172.051 72.0386 145.646ZM251.917 100.294C253.342 102.911 252.373 106.212 249.698 107.576C249.358 107.749 248.96 107.919 248.618 108.033L209.181 121.234C206.963 122.144 204.287 121.518 202.75 119.469C198.655 114.007 193.363 109.511 187.272 106.496C181.412 103.537 174.753 101.886 167.64 101.886C155.519 101.886 144.595 106.78 136.683 114.689C128.774 122.601 123.88 133.525 123.88 145.646C123.88 148.605 121.433 151.052 118.474 151.052C115.515 151.052 113.068 148.605 113.068 145.646C113.068 130.624 119.156 116.966 129.058 107.064L129.117 107.008C139.016 97.1618 152.618 91.0734 167.64 91.0734C176.404 91.0734 184.714 93.1809 192.052 96.8778C198.541 100.121 204.232 104.617 208.897 109.968L239.058 99.8957C231.945 88.8547 222.327 79.5232 211.06 72.7499C198.369 65.1834 183.517 60.8015 167.64 60.8015C164.681 60.8015 162.234 58.3545 162.234 55.3952C162.234 52.4359 164.681 49.9889 167.64 49.9889C185.51 49.9889 202.238 54.9386 216.581 63.474C231.433 72.3518 243.668 85.0993 251.917 100.294Z" fill="url(#paint0_linear_76_1537)"/>
<path d="M128.605 66.8899C131.564 66.8899 134.008 69.3369 134.008 72.2962C134.008 75.2555 131.564 77.7025 128.605 77.7025H92.5253C89.566 77.7025 87.119 75.2555 87.119 72.2962C87.119 69.3369 89.566 66.8899 92.5253 66.8899H128.605Z" fill="url(#paint1_linear_76_1537)"/>
<path d="M138.334 100.692C141.293 100.692 143.74 103.139 143.74 106.098C143.74 109.057 141.293 111.504 138.334 111.504H91.3867C88.4274 111.504 85.9803 109.057 85.9803 106.098C85.9803 103.139 88.4274 100.692 91.3867 100.692H138.334Z" fill="url(#paint2_linear_76_1537)"/>
<path d="M118.474 140.24C121.433 140.24 123.88 142.687 123.88 145.646C123.88 148.605 121.433 151.052 118.474 151.052H55.1962C52.2369 151.052 49.7899 148.605 49.7899 145.646C49.7899 142.687 52.2369 140.24 55.1962 140.24H118.474Z" fill="url(#paint3_linear_76_1537)"/>
<path d="M160.583 189.579C159.561 188.554 158.08 187.928 156.488 187.928C154.893 187.928 153.47 188.554 152.446 189.634C151.421 190.659 150.739 192.14 150.739 193.676C150.739 195.269 151.366 196.691 152.446 197.716C153.47 198.74 154.951 199.367 156.544 199.367C158.139 199.367 159.561 198.74 160.641 197.716C161.666 196.691 162.292 195.213 162.292 193.618C162.234 192.026 161.607 190.603 160.583 189.579ZM156.488 177.059C161.04 177.059 165.193 178.936 168.211 181.895C171.226 184.913 173.046 189.008 173.046 193.562C173.046 198.114 171.17 202.267 168.211 205.227C165.193 208.245 161.095 210.065 156.544 210.065C151.992 210.065 147.838 208.186 144.879 205.227C141.861 202.212 140.041 198.114 140.041 193.504C140.041 188.952 141.92 184.799 144.879 181.781C147.78 178.936 151.933 177.059 156.488 177.059Z" fill="url(#paint4_linear_76_1537)"/>
<path d="M159.219 52.2633C158.195 51.2417 156.716 50.6153 155.121 50.6153C153.529 50.6153 152.106 51.2417 151.082 52.3218C150.057 53.3463 149.375 54.8245 149.375 56.3612C149.375 57.9565 149.999 59.379 151.082 60.4035C152.106 61.425 153.584 62.0514 155.18 62.0514C156.772 62.0514 158.195 61.425 159.275 60.4035C160.299 59.379 160.926 57.8979 160.926 56.3056C160.87 54.7689 160.243 53.2878 159.219 52.2633ZM155.121 39.7441C159.673 39.7441 163.829 41.6233 166.844 44.5826C169.859 47.5975 171.683 51.6954 171.683 56.247C171.683 60.8016 169.803 64.9551 166.844 67.9144C163.829 70.9293 159.731 72.7499 155.18 72.7499C150.625 72.7499 146.472 70.8737 143.512 67.9144C140.497 64.8966 138.677 60.8016 138.677 56.1914C138.677 51.6398 140.553 47.4833 143.512 44.4685C146.416 41.6233 150.569 39.7441 155.121 39.7441Z" fill="url(#paint5_linear_76_1537)"/>
<path d="M48.139 141.776C47.1145 140.752 45.6334 140.128 44.0411 140.128C42.4487 140.128 41.0262 140.752 40.0017 141.835C38.9772 142.859 38.2952 144.338 38.2952 145.874C38.2952 147.467 38.9187 148.889 40.0017 149.914C41.0262 150.938 42.5044 151.565 44.0996 151.565C45.692 151.565 47.1145 150.938 48.1946 149.914C49.2191 148.889 49.8455 147.411 49.8455 145.819C49.8455 144.282 49.1635 142.801 48.139 141.776ZM44.0996 129.316C48.6512 129.316 52.8048 131.192 55.8197 134.151C58.8375 137.169 60.6581 141.264 60.6581 145.819C60.6581 150.37 58.7789 154.524 55.8197 157.483C52.8048 160.498 48.7069 162.322 44.1552 162.322C39.6036 162.322 35.4472 160.442 32.4908 157.483C29.473 154.468 27.6523 150.37 27.6523 145.76C27.6523 141.209 29.5315 137.055 32.4908 134.037C35.3359 131.136 39.4895 129.316 44.0996 129.316Z" fill="url(#paint6_linear_76_1537)"/>
<path d="M83.9899 102.056C82.9654 101.031 81.4843 100.408 79.892 100.408C78.2997 100.408 76.8771 101.031 75.8526 102.114C74.8282 103.139 74.1432 104.617 74.1432 106.154C74.1432 107.749 74.7696 109.172 75.8526 110.196C76.8771 111.218 78.3553 111.844 79.9476 111.844C81.5429 111.844 82.9654 111.218 84.0455 110.196C85.07 109.172 85.6964 107.69 85.6964 106.098C85.6408 104.503 85.0144 103.08 83.9899 102.056ZM79.892 89.5367C84.4436 89.5367 88.5971 91.4159 91.615 94.3752C94.6299 97.3901 96.4505 101.488 96.4505 106.04C96.4505 110.594 94.5743 114.748 91.615 117.707C88.5971 120.722 84.5022 122.543 79.9476 122.543C75.396 122.543 71.2425 120.666 68.2832 117.707C65.2683 114.689 63.4477 110.594 63.4477 105.984C63.4477 101.432 65.3239 97.2759 68.2832 94.261C71.1869 91.4159 75.3404 89.5367 79.892 89.5367Z" fill="url(#paint7_linear_76_1537)"/>
<defs>
<linearGradient id="paint0_linear_76_1537" x1="79.9491" y1="89.5366" x2="79.9491" y2="122.542" gradientUnits="userSpaceOnUse">
<stop stop-color="#8B5FBF"/>
<stop offset="1" stop-color="#61398F"/>
</linearGradient>
<linearGradient id="paint1_linear_76_1537" x1="79.9491" y1="89.5366" x2="79.9491" y2="122.542" gradientUnits="userSpaceOnUse">
<stop stop-color="#8B5FBF"/>
<stop offset="1" stop-color="#61398F"/>
</linearGradient>
<linearGradient id="paint2_linear_76_1537" x1="79.9491" y1="89.5366" x2="79.9491" y2="122.542" gradientUnits="userSpaceOnUse">
<stop stop-color="#8B5FBF"/>
<stop offset="1" stop-color="#61398F"/>
</linearGradient>
<linearGradient id="paint3_linear_76_1537" x1="79.9491" y1="89.5366" x2="79.9491" y2="122.542" gradientUnits="userSpaceOnUse">
<stop stop-color="#8B5FBF"/>
<stop offset="1" stop-color="#61398F"/>
</linearGradient>
<linearGradient id="paint4_linear_76_1537" x1="79.9491" y1="89.5366" x2="79.9491" y2="122.542" gradientUnits="userSpaceOnUse">
<stop stop-color="#8B5FBF"/>
<stop offset="1" stop-color="#61398F"/>
</linearGradient>
<linearGradient id="paint5_linear_76_1537" x1="79.9491" y1="89.5366" x2="79.9491" y2="122.542" gradientUnits="userSpaceOnUse">
<stop stop-color="#8B5FBF"/>
<stop offset="1" stop-color="#61398F"/>
</linearGradient>
<linearGradient id="paint6_linear_76_1537" x1="79.9491" y1="89.5366" x2="79.9491" y2="122.542" gradientUnits="userSpaceOnUse">
<stop stop-color="#8B5FBF"/>
<stop offset="1" stop-color="#61398F"/>
</linearGradient>
<linearGradient id="paint7_linear_76_1537" x1="79.9491" y1="89.5366" x2="79.9491" y2="122.542" gradientUnits="userSpaceOnUse">
<stop stop-color="#8B5FBF"/>
<stop offset="1" stop-color="#61398F"/>
</linearGradient>
</defs>
</svg>
