<svg width="104" height="30" viewBox="0 0 104 30" fill="none" xmlns="http://www.w3.org/2000/svg">
<path d="M14.8935 10.1806C15.2022 9.88568 15.7034 9.88568 16.004 10.1886L14.8935 10.1806ZM6.51169 15.7412C6.51169 15.3153 6.87068 14.9631 7.30482 14.9631C7.73896 14.9631 8.09795 15.3153 8.09795 15.7412C8.09795 19.1155 9.49227 22.1621 11.7463 24.3733C14.0003 26.5845 17.1058 27.9523 20.5455 27.9523C22.8746 27.9523 25.0535 27.3217 26.915 26.2323C28.5765 25.2579 29.9789 23.9229 31.0224 22.3259L26.5977 20.8764C25.9132 21.6544 25.0703 22.2931 24.1268 22.7598C23.0417 23.2923 21.8312 23.5952 20.5455 23.5952C20.1113 23.5952 19.7523 23.243 19.7523 22.8171C19.7523 22.3916 20.1113 22.0395 20.5455 22.0395C21.5804 22.0395 22.5573 21.8019 23.4256 21.376C24.3188 20.9337 25.0952 20.295 25.6963 19.5085C25.8965 19.2465 26.2473 19.1319 26.5814 19.2385L32.4249 21.1464C32.4833 21.1628 32.5335 21.1793 32.5838 21.2121C32.9677 21.4169 33.1098 21.8836 32.9093 22.2602C31.7069 24.447 29.9124 26.2896 27.7331 27.5593C25.6294 28.7877 23.1752 29.5 20.5536 29.5C16.6799 29.5 13.1737 27.9603 10.6358 25.4706C8.08121 22.981 6.51169 19.5414 6.51169 15.7412ZM32.9007 9.21419C33.1098 9.5908 32.9677 10.066 32.5752 10.2623C32.5254 10.2871 32.467 10.3116 32.4167 10.328L26.6312 12.2279C26.3057 12.3589 25.9132 12.2688 25.6878 11.9739C25.087 11.1878 24.3106 10.5407 23.417 10.1068C22.5573 9.68095 21.5804 9.44336 20.5369 9.44336C18.7587 9.44336 17.1561 10.1477 15.9954 11.286C14.8351 12.4246 14.1171 13.9968 14.1171 15.7412C14.1171 16.1671 13.7581 16.5193 13.324 16.5193C12.8898 16.5193 12.5308 16.1671 12.5308 15.7412C12.5308 13.5793 13.424 11.6137 14.8767 10.1886L14.8853 10.1806C16.3376 8.76344 18.3331 7.88722 20.5369 7.88722C21.8226 7.88722 23.0417 8.19053 24.1182 8.72258C25.0703 9.18934 25.905 9.8364 26.5895 10.6065L31.0143 9.1569C29.9708 7.56791 28.5597 6.22493 26.9069 5.25013C25.0449 4.16117 22.8661 3.53054 20.5369 3.53054C20.1028 3.53054 19.7438 3.17837 19.7438 2.75248C19.7438 2.32658 20.1028 1.97441 20.5369 1.97441C23.1585 1.97441 25.6126 2.68676 27.7168 3.91516C29.8956 5.19284 31.6906 7.02743 32.9007 9.21419Z" fill="#4A4A4A"/>
<path d="M14.8102 4.40677C15.2443 4.40677 15.6029 4.75894 15.6029 5.18484C15.6029 5.61073 15.2443 5.9629 14.8102 5.9629H9.51718C9.08304 5.9629 8.72405 5.61073 8.72405 5.18484C8.72405 4.75894 9.08304 4.40677 9.51718 4.40677H14.8102Z" fill="#4A4A4A"/>
<path d="M16.2376 9.27149C16.6717 9.27149 17.0307 9.62366 17.0307 10.0496C17.0307 10.4754 16.6717 10.8276 16.2376 10.8276H9.35014C8.916 10.8276 8.557 10.4754 8.557 10.0496C8.557 9.62366 8.916 9.27149 9.35014 9.27149H16.2376Z" fill="#4A4A4A"/>
<path d="M13.324 14.9631C13.7581 14.9631 14.1171 15.3153 14.1171 15.7412C14.1171 16.1671 13.7581 16.5193 13.324 16.5193H4.04082C3.60668 16.5193 3.24768 16.1671 3.24768 15.7412C3.24768 15.3153 3.60668 14.9631 4.04082 14.9631H13.324Z" fill="#4A4A4A"/>
<path d="M19.5016 22.0639C19.3517 21.9165 19.1344 21.8263 18.9008 21.8263C18.6668 21.8263 18.4581 21.9165 18.3078 22.0719C18.1575 22.2193 18.0574 22.4325 18.0574 22.6537C18.0574 22.8828 18.1493 23.0876 18.3078 23.235C18.4581 23.3825 18.6754 23.4726 18.909 23.4726C19.143 23.4726 19.3517 23.3825 19.5102 23.235C19.6605 23.0876 19.7523 22.8748 19.7523 22.6452C19.7438 22.4161 19.6519 22.2113 19.5016 22.0639ZM18.9008 20.2622C19.5686 20.2622 20.1779 20.5322 20.6206 20.9581C21.0629 21.3924 21.33 21.9818 21.33 22.6372C21.33 23.2923 21.0548 23.8901 20.6206 24.316C20.1779 24.7503 19.5767 25.0123 18.909 25.0123C18.2412 25.0123 17.6319 24.7419 17.1977 24.316C16.755 23.8821 16.4879 23.2923 16.4879 22.6288C16.4879 21.9738 16.7636 21.376 17.1977 20.9417C17.6233 20.5322 18.2326 20.2622 18.9008 20.2622Z" fill="#4A4A4A"/>
<path d="M19.3015 2.30173C19.1512 2.15471 18.9343 2.06456 18.7003 2.06456C18.4667 2.06456 18.258 2.15471 18.1077 2.31016C17.9574 2.4576 17.8573 2.67033 17.8573 2.8915C17.8573 3.12108 17.9488 3.32582 18.1077 3.47326C18.258 3.62028 18.4748 3.71043 18.7089 3.71043C18.9425 3.71043 19.1512 3.62028 19.3096 3.47326C19.4599 3.32582 19.5518 3.11266 19.5518 2.88349C19.5437 2.66233 19.4518 2.44917 19.3015 2.30173ZM18.7003 0.5C19.368 0.5 19.9778 0.770449 20.4201 1.19634C20.8624 1.63024 21.1299 2.22001 21.1299 2.87507C21.1299 3.53055 20.8543 4.12832 20.4201 4.55421C19.9778 4.98811 19.3766 5.25013 18.7089 5.25013C18.0407 5.25013 17.4314 4.98011 16.9972 4.55421C16.5549 4.11989 16.2878 3.53055 16.2878 2.86706C16.2878 2.212 16.5631 1.61381 16.9972 1.17991C17.4232 0.770449 18.0326 0.5 18.7003 0.5Z" fill="#4A4A4A"/>
<path d="M3.00549 15.1843C2.8552 15.0369 2.63791 14.9471 2.40431 14.9471C2.17071 14.9471 1.96201 15.0369 1.81171 15.1927C1.66142 15.3402 1.56136 15.5529 1.56136 15.7741C1.56136 16.0032 1.65283 16.208 1.81171 16.3554C1.96201 16.5028 2.17886 16.593 2.4129 16.593C2.6465 16.593 2.8552 16.5028 3.01365 16.3554C3.16395 16.208 3.25584 15.9952 3.25584 15.7661C3.25584 15.5449 3.15579 15.3317 3.00549 15.1843ZM2.4129 13.391C3.08064 13.391 3.68998 13.661 4.13228 14.0869C4.57501 14.5212 4.84211 15.1106 4.84211 15.7661C4.84211 16.4211 4.56643 17.0189 4.13228 17.4448C3.68998 17.8787 3.0888 18.1411 2.42106 18.1411C1.75331 18.1411 1.14354 17.8707 0.709827 17.4448C0.267098 17.0109 0 16.4211 0 15.7576C0 15.1026 0.275686 14.5048 0.709827 14.0705C1.12722 13.653 1.73656 13.391 2.4129 13.391Z" fill="#4A4A4A"/>
<path d="M8.265 9.46779C8.1147 9.32035 7.89742 9.23062 7.66382 9.23062C7.43021 9.23062 7.22152 9.32035 7.07122 9.47622C6.92092 9.62366 6.82044 9.8364 6.82044 10.0576C6.82044 10.2871 6.91233 10.4919 7.07122 10.6393C7.22152 10.7863 7.43837 10.8765 7.67197 10.8765C7.90601 10.8765 8.1147 10.7863 8.27316 10.6393C8.42346 10.4919 8.51535 10.2787 8.51535 10.0496C8.50719 9.81997 8.4153 9.61523 8.265 9.46779ZM7.66382 7.66606C8.33156 7.66606 8.9409 7.93651 9.38363 8.36241C9.82593 8.7963 10.093 9.38607 10.093 10.0411C10.093 10.6966 9.81777 11.2944 9.38363 11.7203C8.9409 12.1542 8.34015 12.4162 7.67197 12.4162C7.00423 12.4162 6.39489 12.1462 5.96075 11.7203C5.51845 11.286 5.25135 10.6966 5.25135 10.0331C5.25135 9.37806 5.5266 8.77987 5.96075 8.34598C6.38673 7.93651 6.99607 7.66606 7.66382 7.66606Z" fill="#4A4A4A"/>
<path d="M49.7861 17.8545H52.7402C52.6615 18.9001 52.3714 19.8275 51.8701 20.6367C51.3688 21.4388 50.6706 22.069 49.7754 22.5273C48.8802 22.9857 47.7952 23.2148 46.5205 23.2148C45.5394 23.2148 44.6549 23.043 43.8672 22.6992C43.0866 22.3483 42.417 21.8506 41.8584 21.2061C41.307 20.5544 40.8844 19.7738 40.5908 18.8643C40.2972 17.9476 40.1504 16.9199 40.1504 15.7812V14.5889C40.1504 13.4502 40.3008 12.4225 40.6016 11.5059C40.9023 10.5892 41.332 9.80859 41.8906 9.16406C42.4564 8.51237 43.1331 8.01107 43.9209 7.66016C44.7158 7.30924 45.6038 7.13379 46.585 7.13379C47.8597 7.13379 48.9375 7.37012 49.8184 7.84277C50.6992 8.30827 51.3831 8.94922 51.8701 9.76562C52.3571 10.582 52.6507 11.5202 52.751 12.5801H49.7969C49.7396 11.9212 49.5964 11.3626 49.3672 10.9043C49.1452 10.446 48.8086 10.0986 48.3574 9.8623C47.9134 9.61882 47.3226 9.49707 46.585 9.49707C46.012 9.49707 45.5072 9.60449 45.0703 9.81934C44.6406 10.0342 44.2826 10.3564 43.9961 10.7861C43.7096 11.2087 43.4948 11.7386 43.3516 12.376C43.2083 13.0062 43.1367 13.7367 43.1367 14.5674V15.7812C43.1367 16.5762 43.2012 17.2887 43.3301 17.9189C43.459 18.5492 43.6595 19.0827 43.9316 19.5195C44.2038 19.9564 44.5547 20.2894 44.9844 20.5186C45.4141 20.7477 45.9261 20.8623 46.5205 20.8623C47.2438 20.8623 47.8311 20.7477 48.2822 20.5186C48.7406 20.2894 49.0879 19.9528 49.3242 19.5088C49.5677 19.0648 49.7217 18.5133 49.7861 17.8545ZM61.2158 20.5293V15.1689C61.2158 14.7751 61.1478 14.4349 61.0117 14.1484C60.8757 13.862 60.668 13.64 60.3887 13.4824C60.1094 13.3249 59.7549 13.2461 59.3252 13.2461C58.9456 13.2461 58.6126 13.3105 58.3262 13.4395C58.0469 13.5684 57.832 13.751 57.6816 13.9873C57.5312 14.2165 57.4561 14.4814 57.4561 14.7822H54.6094C54.6094 14.3024 54.724 13.8477 54.9531 13.418C55.1823 12.9811 55.5081 12.5944 55.9307 12.2578C56.3604 11.9141 56.8724 11.6455 57.4668 11.4521C58.0684 11.2588 58.7415 11.1621 59.4863 11.1621C60.3672 11.1621 61.1514 11.3125 61.8389 11.6133C62.5335 11.9069 63.0778 12.3509 63.4717 12.9453C63.8727 13.5397 64.0732 14.2881 64.0732 15.1904V20.2607C64.0732 20.8408 64.109 21.3385 64.1807 21.7539C64.2594 22.1621 64.374 22.5166 64.5244 22.8174V23H61.6348C61.4987 22.7064 61.3949 22.334 61.3232 21.8828C61.2516 21.4245 61.2158 20.9733 61.2158 20.5293ZM61.6133 15.9209L61.6348 17.6074H59.8408C59.3968 17.6074 59.0065 17.654 58.6699 17.7471C58.3333 17.833 58.0576 17.9619 57.8428 18.1338C57.6279 18.2985 57.4668 18.499 57.3594 18.7354C57.252 18.9645 57.1982 19.2259 57.1982 19.5195C57.1982 19.806 57.2627 20.0638 57.3916 20.293C57.5277 20.5221 57.721 20.7048 57.9717 20.8408C58.2295 20.9697 58.5303 21.0342 58.874 21.0342C59.3753 21.0342 59.8122 20.9339 60.1846 20.7334C60.557 20.5257 60.847 20.2751 61.0547 19.9814C61.2624 19.6878 61.3734 19.4085 61.3877 19.1436L62.2041 20.3682C62.1038 20.6618 61.9535 20.9733 61.7529 21.3027C61.5524 21.6322 61.2946 21.9401 60.9795 22.2266C60.6644 22.513 60.2848 22.7493 59.8408 22.9355C59.3968 23.1217 58.8812 23.2148 58.2939 23.2148C57.542 23.2148 56.8688 23.0645 56.2744 22.7637C55.68 22.4629 55.2109 22.0511 54.8672 21.5283C54.5234 21.0055 54.3516 20.4111 54.3516 19.7451C54.3516 19.1292 54.4661 18.585 54.6953 18.1123C54.9245 17.6396 55.2646 17.2422 55.7158 16.9199C56.167 16.5905 56.7256 16.3434 57.3916 16.1787C58.0648 16.0068 58.8346 15.9209 59.7012 15.9209H61.6133ZM69.4658 13.751V23H66.6299V11.377H69.3154L69.4658 13.751ZM73 11.3018L72.957 13.9443C72.7995 13.9157 72.6204 13.8942 72.4199 13.8799C72.2266 13.8656 72.0439 13.8584 71.8721 13.8584C71.4352 13.8584 71.0521 13.9193 70.7227 14.041C70.3932 14.1556 70.1175 14.3239 69.8955 14.5459C69.6807 14.7679 69.516 15.04 69.4014 15.3623C69.2868 15.6774 69.2223 16.0355 69.208 16.4365L68.5957 16.3613C68.5957 15.6237 68.6709 14.9398 68.8213 14.3096C68.9717 13.6794 69.1901 13.1279 69.4766 12.6553C69.763 12.1826 70.1211 11.8174 70.5508 11.5596C70.9876 11.2946 71.4889 11.1621 72.0547 11.1621C72.2122 11.1621 72.3805 11.1764 72.5596 11.2051C72.7458 11.2266 72.8926 11.2588 73 11.3018ZM77.3828 13.7617V23H74.5469V11.377H77.2217L77.3828 13.7617ZM76.9639 16.7695H76.0938C76.0938 15.9603 76.1904 15.2155 76.3838 14.5352C76.5843 13.8548 76.8779 13.264 77.2646 12.7627C77.6514 12.2542 78.1276 11.8604 78.6934 11.5811C79.2663 11.3018 79.9287 11.1621 80.6807 11.1621C81.2035 11.1621 81.6833 11.2409 82.1201 11.3984C82.557 11.5488 82.9329 11.7887 83.248 12.1182C83.5703 12.4404 83.8174 12.863 83.9893 13.3857C84.1611 13.9014 84.2471 14.5208 84.2471 15.2441V23H81.4111V15.5342C81.4111 14.9899 81.3324 14.5638 81.1748 14.2559C81.0244 13.9479 80.806 13.7331 80.5195 13.6113C80.2331 13.4824 79.8893 13.418 79.4883 13.418C79.0443 13.418 78.6611 13.5075 78.3389 13.6865C78.0238 13.8584 77.7624 14.0983 77.5547 14.4062C77.3542 14.7142 77.2038 15.0687 77.1035 15.4697C77.0104 15.8708 76.9639 16.304 76.9639 16.7695ZM84.0322 16.2432L82.8613 16.458C82.8685 15.7275 82.9688 15.0436 83.1621 14.4062C83.3555 13.7617 83.6383 13.1995 84.0107 12.7197C84.3903 12.2327 84.8594 11.8532 85.418 11.5811C85.9837 11.3018 86.6354 11.1621 87.373 11.1621C87.946 11.1621 88.4616 11.2445 88.9199 11.4092C89.3854 11.5667 89.7829 11.821 90.1123 12.1719C90.4417 12.5156 90.6924 12.9632 90.8643 13.5146C91.0433 14.0661 91.1328 14.7393 91.1328 15.5342V23H88.2754V15.5234C88.2754 14.9577 88.1966 14.5244 88.0391 14.2236C87.8887 13.9229 87.6702 13.7152 87.3838 13.6006C87.0973 13.4788 86.7607 13.418 86.374 13.418C85.9801 13.418 85.6364 13.4932 85.3428 13.6436C85.0563 13.7868 84.8128 13.9873 84.6123 14.2451C84.4189 14.5029 84.2721 14.8037 84.1719 15.1475C84.0788 15.484 84.0322 15.8493 84.0322 16.2432ZM97.084 21.7109L100.199 11.377H103.239L98.5771 24.7617C98.4697 25.0482 98.3301 25.3597 98.1582 25.6963C97.9935 26.0329 97.7715 26.3516 97.4922 26.6523C97.2129 26.9603 96.862 27.2109 96.4395 27.4043C96.0241 27.5977 95.5192 27.6943 94.9248 27.6943C94.667 27.6943 94.4378 27.6764 94.2373 27.6406C94.0368 27.6048 93.8255 27.5583 93.6035 27.501V25.374C93.6751 25.3812 93.7575 25.3848 93.8506 25.3848C93.9508 25.3919 94.0368 25.3955 94.1084 25.3955C94.5238 25.3955 94.8675 25.3454 95.1396 25.2451C95.4118 25.152 95.6302 24.998 95.7949 24.7832C95.9668 24.5755 96.11 24.3034 96.2246 23.9668L97.084 21.7109ZM95.5479 11.377L98.1797 19.9385L98.6416 22.9355L96.6865 23.29L92.4863 11.377H95.5479Z" fill="#4A4A4A"/>
</svg>
