<svg width="260" height="23" viewBox="0 0 260 23" fill="none" xmlns="http://www.w3.org/2000/svg">
<path d="M4.89453 18H1.02734L1.05078 16.7695H4.89453C6.12109 16.7695 7.17578 16.4961 8.05859 15.9492C8.94922 15.3945 9.63672 14.6289 10.1211 13.6523C10.6055 12.6758 10.8477 11.543 10.8477 10.2539V8.66016C10.8477 7.67578 10.707 6.78516 10.4258 5.98828C10.1523 5.19141 9.75781 4.51172 9.24219 3.94922C8.72656 3.37891 8.10938 2.94141 7.39062 2.63672C6.67969 2.33203 5.88281 2.17969 5 2.17969H0.957031V0.9375H5C6.0625 0.9375 7.03516 1.12109 7.91797 1.48828C8.80859 1.84766 9.57812 2.37109 10.2266 3.05859C10.8828 3.73828 11.3867 4.55469 11.7383 5.50781C12.0977 6.46094 12.2773 7.52344 12.2773 8.69531V10.2539C12.2773 11.4258 12.0977 12.4883 11.7383 13.4414C11.3867 14.3945 10.8828 15.2109 10.2266 15.8906C9.57031 16.5703 8.79297 17.0938 7.89453 17.4609C6.99609 17.8203 5.99609 18 4.89453 18ZM1.67188 0.9375V18H0.230469V0.9375H1.67188ZM17.0234 7.41797V18H15.6289V5.32031H16.9883L17.0234 7.41797ZM21.5117 5.22656L21.4766 6.51562C21.3203 6.49219 21.168 6.47266 21.0195 6.45703C20.8711 6.44141 20.7109 6.43359 20.5391 6.43359C19.9297 6.43359 19.3945 6.54688 18.9336 6.77344C18.4805 6.99219 18.0977 7.30078 17.7852 7.69922C17.4727 8.08984 17.2344 8.55078 17.0703 9.08203C16.9062 9.60547 16.8125 10.168 16.7891 10.7695L16.2734 10.9688C16.2734 10.1406 16.3594 9.37109 16.5312 8.66016C16.7031 7.94922 16.9648 7.32812 17.3164 6.79688C17.6758 6.25781 18.125 5.83984 18.6641 5.54297C19.2109 5.23828 19.8516 5.08594 20.5859 5.08594C20.7656 5.08594 20.9414 5.10156 21.1133 5.13281C21.293 5.15625 21.4258 5.1875 21.5117 5.22656ZM25.2734 5.32031V18H23.8789V5.32031H25.2734ZM23.6328 1.65234C23.6328 1.38672 23.7148 1.16406 23.8789 0.984375C24.0508 0.796875 24.2852 0.703125 24.582 0.703125C24.8789 0.703125 25.1133 0.796875 25.2852 0.984375C25.4648 1.16406 25.5547 1.38672 25.5547 1.65234C25.5547 1.91016 25.4648 2.13281 25.2852 2.32031C25.1133 2.5 24.8789 2.58984 24.582 2.58984C24.2852 2.58984 24.0508 2.5 23.8789 2.32031C23.7148 2.13281 23.6328 1.91016 23.6328 1.65234ZM32.8438 16.6523L36.9102 5.32031H38.3516L33.6055 18H32.5859L32.8438 16.6523ZM29.1641 5.32031L33.2773 16.6875L33.5 18H32.4688L27.7109 5.32031H29.1641ZM45.3945 18.2344C44.5664 18.2344 43.8047 18.082 43.1094 17.7773C42.4219 17.4727 41.8203 17.043 41.3047 16.4883C40.7969 15.9336 40.4023 15.2773 40.1211 14.5195C39.8477 13.7539 39.7109 12.918 39.7109 12.0117V11.5078C39.7109 10.5312 39.8555 9.64844 40.1445 8.85938C40.4336 8.07031 40.832 7.39453 41.3398 6.83203C41.8477 6.26953 42.4258 5.83984 43.0742 5.54297C43.7305 5.23828 44.418 5.08594 45.1367 5.08594C45.9414 5.08594 46.6562 5.23047 47.2812 5.51953C47.9062 5.80078 48.4297 6.20312 48.8516 6.72656C49.2812 7.24219 49.6055 7.85547 49.8242 8.56641C50.043 9.26953 50.1523 10.0469 50.1523 10.8984V11.7539H40.5547V10.5586H48.7578V10.3945C48.7422 9.68359 48.5977 9.01953 48.3242 8.40234C48.0586 7.77734 47.6602 7.26953 47.1289 6.87891C46.5977 6.48828 45.9336 6.29297 45.1367 6.29297C44.543 6.29297 43.9961 6.41797 43.4961 6.66797C43.0039 6.91797 42.5781 7.27734 42.2188 7.74609C41.8672 8.20703 41.5938 8.75781 41.3984 9.39844C41.2109 10.0312 41.1172 10.7344 41.1172 11.5078V12.0117C41.1172 12.7148 41.2188 13.3711 41.4219 13.9805C41.6328 14.582 41.9297 15.1133 42.3125 15.5742C42.7031 16.0352 43.1641 16.3945 43.6953 16.6523C44.2266 16.9102 44.8125 17.0391 45.4531 17.0391C46.2031 17.0391 46.8672 16.9023 47.4453 16.6289C48.0234 16.3477 48.543 15.9062 49.0039 15.3047L49.8828 15.9844C49.6094 16.3906 49.2656 16.7656 48.8516 17.1094C48.4453 17.4531 47.957 17.7266 47.3867 17.9297C46.8164 18.1328 46.1523 18.2344 45.3945 18.2344ZM68.7617 13.8047C68.7617 13.3359 68.6836 12.918 68.5273 12.5508C68.3711 12.1836 68.1133 11.8555 67.7539 11.5664C67.4023 11.2695 66.9258 10.9961 66.3242 10.7461C65.7305 10.4883 64.9883 10.2344 64.0977 9.98438C63.2461 9.74219 62.4766 9.47656 61.7891 9.1875C61.1016 8.89844 60.5117 8.56641 60.0195 8.19141C59.5352 7.81641 59.1641 7.37891 58.9062 6.87891C58.6484 6.37109 58.5195 5.78125 58.5195 5.10938C58.5195 4.45312 58.6602 3.85547 58.9414 3.31641C59.2227 2.77734 59.6172 2.3125 60.125 1.92188C60.6406 1.53125 61.2461 1.23047 61.9414 1.01953C62.6445 0.808594 63.4141 0.703125 64.25 0.703125C65.4453 0.703125 66.4766 0.929687 67.3438 1.38281C68.2188 1.83594 68.8945 2.44922 69.3711 3.22266C69.8555 3.98828 70.0977 4.84766 70.0977 5.80078H68.6562C68.6562 5.05859 68.4805 4.39844 68.1289 3.82031C67.7852 3.23438 67.2852 2.77734 66.6289 2.44922C65.9805 2.11328 65.1875 1.94531 64.25 1.94531C63.3125 1.94531 62.5234 2.08984 61.8828 2.37891C61.25 2.66016 60.7695 3.03906 60.4414 3.51562C60.1211 3.98438 59.9609 4.50781 59.9609 5.08594C59.9609 5.49219 60.0391 5.86719 60.1953 6.21094C60.3516 6.54688 60.6055 6.86328 60.957 7.16016C61.3164 7.44922 61.7891 7.72266 62.375 7.98047C62.9609 8.23047 63.6836 8.46875 64.543 8.69531C65.4492 8.94531 66.2539 9.22266 66.957 9.52734C67.6602 9.83203 68.2539 10.1836 68.7383 10.582C69.2227 10.9727 69.5898 11.4297 69.8398 11.9531C70.0898 12.4766 70.2148 13.0859 70.2148 13.7812C70.2148 14.4766 70.0664 15.1016 69.7695 15.6562C69.4805 16.2031 69.0703 16.668 68.5391 17.0508C68.0156 17.4336 67.3945 17.7266 66.6758 17.9297C65.9648 18.1328 65.1875 18.2344 64.3438 18.2344C63.5859 18.2344 62.832 18.1367 62.082 17.9414C61.332 17.7461 60.6445 17.4453 60.0195 17.0391C59.4023 16.625 58.9062 16.0938 58.5312 15.4453C58.1641 14.7969 57.9805 14.0234 57.9805 13.125H59.4102C59.4102 13.8438 59.5547 14.4492 59.8438 14.9414C60.1328 15.4336 60.5156 15.832 60.9922 16.1367C61.4766 16.4414 62.0078 16.6641 62.5859 16.8047C63.1719 16.9375 63.7578 17.0039 64.3438 17.0039C65.2422 17.0039 66.0195 16.8711 66.6758 16.6055C67.3398 16.3398 67.8516 15.9688 68.2109 15.4922C68.5781 15.0078 68.7617 14.4453 68.7617 13.8047ZM74.3281 7.94531V18H72.9219V5.32031H74.2695L74.3281 7.94531ZM74.0703 10.875L73.3906 10.5234C73.4375 9.77344 73.5781 9.07031 73.8125 8.41406C74.0547 7.75781 74.3906 7.17969 74.8203 6.67969C75.25 6.17969 75.7656 5.78906 76.3672 5.50781C76.9688 5.22656 77.6523 5.08594 78.418 5.08594C79.0352 5.08594 79.5938 5.17188 80.0938 5.34375C80.6016 5.50781 81.0312 5.76953 81.3828 6.12891C81.7422 6.48047 82.0195 6.94141 82.2148 7.51172C82.4102 8.08203 82.5078 8.76562 82.5078 9.5625V18H81.1133V9.60938C81.1133 8.76562 80.9805 8.10547 80.7148 7.62891C80.457 7.15234 80.0938 6.8125 79.625 6.60938C79.1641 6.40625 78.6289 6.30469 78.0195 6.30469C77.3008 6.30469 76.6914 6.45312 76.1914 6.75C75.6992 7.03906 75.2969 7.41797 74.9844 7.88672C74.6797 8.34766 74.4531 8.84375 74.3047 9.375C74.1562 9.89844 74.0781 10.3984 74.0703 10.875ZM82.4961 9.77344L81.5586 9.79688C81.5977 9.17969 81.7383 8.58984 81.9805 8.02734C82.2305 7.46484 82.5703 6.96484 83 6.52734C83.4297 6.08203 83.9414 5.73047 84.5352 5.47266C85.1367 5.21484 85.8125 5.08594 86.5625 5.08594C87.2188 5.08594 87.8047 5.17578 88.3203 5.35547C88.8359 5.52734 89.2695 5.80469 89.6211 6.1875C89.9805 6.5625 90.2539 7.04297 90.4414 7.62891C90.6289 8.21484 90.7227 8.91797 90.7227 9.73828V18H89.3164V9.72656C89.3164 8.82812 89.1836 8.13281 88.918 7.64062C88.6602 7.14062 88.3008 6.79297 87.8398 6.59766C87.3789 6.40234 86.8398 6.30469 86.2227 6.30469C85.6133 6.3125 85.0781 6.42578 84.6172 6.64453C84.1562 6.85547 83.7695 7.13672 83.457 7.48828C83.1523 7.83203 82.918 8.20312 82.7539 8.60156C82.5977 9 82.5117 9.39062 82.4961 9.77344ZM101.996 15.7266V9.1875C101.996 8.58594 101.871 8.06641 101.621 7.62891C101.371 7.19141 101.004 6.85547 100.52 6.62109C100.035 6.38672 99.4375 6.26953 98.7266 6.26953C98.0703 6.26953 97.4844 6.38672 96.9688 6.62109C96.4609 6.84766 96.0586 7.15625 95.7617 7.54688C95.4727 7.92969 95.3281 8.35547 95.3281 8.82422L93.9219 8.8125C93.9219 8.33594 94.0391 7.875 94.2734 7.42969C94.5078 6.98438 94.8398 6.58594 95.2695 6.23438C95.6992 5.88281 96.2109 5.60547 96.8047 5.40234C97.4062 5.19141 98.0664 5.08594 98.7852 5.08594C99.6914 5.08594 100.488 5.23828 101.176 5.54297C101.871 5.84766 102.414 6.30469 102.805 6.91406C103.195 7.52344 103.391 8.28906 103.391 9.21094V15.3398C103.391 15.7773 103.422 16.2305 103.484 16.6992C103.555 17.168 103.652 17.5547 103.777 17.8594V18H102.289C102.195 17.7188 102.121 17.3672 102.066 16.9453C102.02 16.5156 101.996 16.1094 101.996 15.7266ZM102.324 10.6172L102.348 11.6953H99.5938C98.875 11.6953 98.2305 11.7617 97.6602 11.8945C97.0977 12.0195 96.6211 12.207 96.2305 12.457C95.8398 12.6992 95.5391 12.9922 95.3281 13.3359C95.125 13.6797 95.0234 14.0703 95.0234 14.5078C95.0234 14.9609 95.1367 15.375 95.3633 15.75C95.5977 16.125 95.9258 16.4258 96.3477 16.6523C96.7773 16.8711 97.2852 16.9805 97.8711 16.9805C98.6523 16.9805 99.3398 16.8359 99.9336 16.5469C100.535 16.2578 101.031 15.8789 101.422 15.4102C101.812 14.9414 102.074 14.4297 102.207 13.875L102.816 14.6836C102.715 15.0742 102.527 15.4766 102.254 15.8906C101.988 16.2969 101.641 16.6797 101.211 17.0391C100.781 17.3906 100.273 17.6797 99.6875 17.9062C99.1094 18.125 98.4531 18.2344 97.7188 18.2344C96.8906 18.2344 96.168 18.0781 95.5508 17.7656C94.9414 17.4531 94.4648 17.0273 94.1211 16.4883C93.7852 15.9414 93.6172 15.3242 93.6172 14.6367C93.6172 14.0117 93.75 13.4531 94.0156 12.9609C94.2812 12.4609 94.6641 12.0391 95.1641 11.6953C95.6719 11.3438 96.2812 11.0781 96.9922 10.8984C97.7109 10.7109 98.5156 10.6172 99.4062 10.6172H102.324ZM108.547 7.41797V18H107.152V5.32031H108.512L108.547 7.41797ZM113.035 5.22656L113 6.51562C112.844 6.49219 112.691 6.47266 112.543 6.45703C112.395 6.44141 112.234 6.43359 112.062 6.43359C111.453 6.43359 110.918 6.54688 110.457 6.77344C110.004 6.99219 109.621 7.30078 109.309 7.69922C108.996 8.08984 108.758 8.55078 108.594 9.08203C108.43 9.60547 108.336 10.168 108.312 10.7695L107.797 10.9688C107.797 10.1406 107.883 9.37109 108.055 8.66016C108.227 7.94922 108.488 7.32812 108.84 6.79688C109.199 6.25781 109.648 5.83984 110.188 5.54297C110.734 5.23828 111.375 5.08594 112.109 5.08594C112.289 5.08594 112.465 5.10156 112.637 5.13281C112.816 5.15625 112.949 5.1875 113.035 5.22656ZM120.617 5.32031V6.46875H114.266V5.32031H120.617ZM116.598 2.0625H117.992V14.918C117.992 15.5039 118.07 15.9453 118.227 16.2422C118.383 16.5391 118.586 16.7383 118.836 16.8398C119.086 16.9414 119.355 16.9922 119.645 16.9922C119.855 16.9922 120.059 16.9805 120.254 16.957C120.449 16.9258 120.625 16.8945 120.781 16.8633L120.84 18.0469C120.668 18.1016 120.445 18.1445 120.172 18.1758C119.898 18.2148 119.625 18.2344 119.352 18.2344C118.812 18.2344 118.336 18.1367 117.922 17.9414C117.508 17.7383 117.184 17.3945 116.949 16.9102C116.715 16.418 116.598 15.75 116.598 14.9062V2.0625ZM129.289 17.1445C129.289 16.8711 129.375 16.6406 129.547 16.4531C129.727 16.2578 129.969 16.1602 130.273 16.1602C130.586 16.1602 130.832 16.2539 131.012 16.4414C131.191 16.6289 131.281 16.8633 131.281 17.1445C131.281 17.4102 131.191 17.6367 131.012 17.8242C130.832 18.0117 130.586 18.1055 130.273 18.1055C129.969 18.1055 129.727 18.0117 129.547 17.8242C129.375 17.6367 129.289 17.4102 129.289 17.1445ZM151.004 13.8047C151.004 13.3359 150.926 12.918 150.77 12.5508C150.613 12.1836 150.355 11.8555 149.996 11.5664C149.645 11.2695 149.168 10.9961 148.566 10.7461C147.973 10.4883 147.23 10.2344 146.34 9.98438C145.488 9.74219 144.719 9.47656 144.031 9.1875C143.344 8.89844 142.754 8.56641 142.262 8.19141C141.777 7.81641 141.406 7.37891 141.148 6.87891C140.891 6.37109 140.762 5.78125 140.762 5.10938C140.762 4.45312 140.902 3.85547 141.184 3.31641C141.465 2.77734 141.859 2.3125 142.367 1.92188C142.883 1.53125 143.488 1.23047 144.184 1.01953C144.887 0.808594 145.656 0.703125 146.492 0.703125C147.688 0.703125 148.719 0.929687 149.586 1.38281C150.461 1.83594 151.137 2.44922 151.613 3.22266C152.098 3.98828 152.34 4.84766 152.34 5.80078H150.898C150.898 5.05859 150.723 4.39844 150.371 3.82031C150.027 3.23438 149.527 2.77734 148.871 2.44922C148.223 2.11328 147.43 1.94531 146.492 1.94531C145.555 1.94531 144.766 2.08984 144.125 2.37891C143.492 2.66016 143.012 3.03906 142.684 3.51562C142.363 3.98438 142.203 4.50781 142.203 5.08594C142.203 5.49219 142.281 5.86719 142.438 6.21094C142.594 6.54688 142.848 6.86328 143.199 7.16016C143.559 7.44922 144.031 7.72266 144.617 7.98047C145.203 8.23047 145.926 8.46875 146.785 8.69531C147.691 8.94531 148.496 9.22266 149.199 9.52734C149.902 9.83203 150.496 10.1836 150.98 10.582C151.465 10.9727 151.832 11.4297 152.082 11.9531C152.332 12.4766 152.457 13.0859 152.457 13.7812C152.457 14.4766 152.309 15.1016 152.012 15.6562C151.723 16.2031 151.312 16.668 150.781 17.0508C150.258 17.4336 149.637 17.7266 148.918 17.9297C148.207 18.1328 147.43 18.2344 146.586 18.2344C145.828 18.2344 145.074 18.1367 144.324 17.9414C143.574 17.7461 142.887 17.4453 142.262 17.0391C141.645 16.625 141.148 16.0938 140.773 15.4453C140.406 14.7969 140.223 14.0234 140.223 13.125H141.652C141.652 13.8438 141.797 14.4492 142.086 14.9414C142.375 15.4336 142.758 15.832 143.234 16.1367C143.719 16.4414 144.25 16.6641 144.828 16.8047C145.414 16.9375 146 17.0039 146.586 17.0039C147.484 17.0039 148.262 16.8711 148.918 16.6055C149.582 16.3398 150.094 15.9688 150.453 15.4922C150.82 15.0078 151.004 14.4453 151.004 13.8047ZM156.629 7.75781V22.875H155.223V5.32031H156.535L156.629 7.75781ZM165.441 11.543V11.7891C165.441 12.7344 165.332 13.6016 165.113 14.3906C164.895 15.1797 164.578 15.8633 164.164 16.4414C163.758 17.0117 163.254 17.4531 162.652 17.7656C162.051 18.0781 161.367 18.2344 160.602 18.2344C159.844 18.2344 159.168 18.1172 158.574 17.8828C157.98 17.6484 157.469 17.3164 157.039 16.8867C156.617 16.4492 156.277 15.9414 156.02 15.3633C155.77 14.7773 155.594 14.1367 155.492 13.4414V10.1953C155.609 9.42969 155.801 8.73438 156.066 8.10938C156.332 7.48438 156.672 6.94531 157.086 6.49219C157.508 6.03906 158.008 5.69141 158.586 5.44922C159.164 5.20703 159.824 5.08594 160.566 5.08594C161.34 5.08594 162.027 5.23828 162.629 5.54297C163.238 5.83984 163.75 6.27344 164.164 6.84375C164.586 7.40625 164.902 8.08594 165.113 8.88281C165.332 9.67188 165.441 10.5586 165.441 11.543ZM164.035 11.7891V11.543C164.035 10.8008 163.957 10.1133 163.801 9.48047C163.652 8.84766 163.422 8.29688 163.109 7.82812C162.805 7.35156 162.414 6.98047 161.938 6.71484C161.469 6.44922 160.91 6.31641 160.262 6.31641C159.59 6.31641 159.016 6.42969 158.539 6.65625C158.07 6.875 157.68 7.16797 157.367 7.53516C157.055 7.89453 156.809 8.28906 156.629 8.71875C156.449 9.14844 156.316 9.57031 156.23 9.98438V13.7227C156.379 14.3164 156.617 14.8672 156.945 15.375C157.273 15.875 157.711 16.2773 158.258 16.582C158.812 16.8789 159.488 17.0273 160.285 17.0273C160.926 17.0273 161.48 16.8945 161.949 16.6289C162.418 16.3633 162.805 15.9922 163.109 15.5156C163.422 15.0391 163.652 14.4844 163.801 13.8516C163.957 13.2188 164.035 12.5312 164.035 11.7891ZM173.457 18.2344C172.629 18.2344 171.867 18.082 171.172 17.7773C170.484 17.4727 169.883 17.043 169.367 16.4883C168.859 15.9336 168.465 15.2773 168.184 14.5195C167.91 13.7539 167.773 12.918 167.773 12.0117V11.5078C167.773 10.5312 167.918 9.64844 168.207 8.85938C168.496 8.07031 168.895 7.39453 169.402 6.83203C169.91 6.26953 170.488 5.83984 171.137 5.54297C171.793 5.23828 172.48 5.08594 173.199 5.08594C174.004 5.08594 174.719 5.23047 175.344 5.51953C175.969 5.80078 176.492 6.20312 176.914 6.72656C177.344 7.24219 177.668 7.85547 177.887 8.56641C178.105 9.26953 178.215 10.0469 178.215 10.8984V11.7539H168.617V10.5586H176.82V10.3945C176.805 9.68359 176.66 9.01953 176.387 8.40234C176.121 7.77734 175.723 7.26953 175.191 6.87891C174.66 6.48828 173.996 6.29297 173.199 6.29297C172.605 6.29297 172.059 6.41797 171.559 6.66797C171.066 6.91797 170.641 7.27734 170.281 7.74609C169.93 8.20703 169.656 8.75781 169.461 9.39844C169.273 10.0312 169.18 10.7344 169.18 11.5078V12.0117C169.18 12.7148 169.281 13.3711 169.484 13.9805C169.695 14.582 169.992 15.1133 170.375 15.5742C170.766 16.0352 171.227 16.3945 171.758 16.6523C172.289 16.9102 172.875 17.0391 173.516 17.0391C174.266 17.0391 174.93 16.9023 175.508 16.6289C176.086 16.3477 176.605 15.9062 177.066 15.3047L177.945 15.9844C177.672 16.3906 177.328 16.7656 176.914 17.1094C176.508 17.4531 176.02 17.7266 175.449 17.9297C174.879 18.1328 174.215 18.2344 173.457 18.2344ZM182.375 8.02734V18H180.98V5.32031H182.316L182.375 8.02734ZM182.059 10.875L181.438 10.5234C181.484 9.77344 181.637 9.07031 181.895 8.41406C182.152 7.75781 182.5 7.17969 182.938 6.67969C183.383 6.17969 183.902 5.78906 184.496 5.50781C185.098 5.22656 185.762 5.08594 186.488 5.08594C187.121 5.08594 187.688 5.17188 188.188 5.34375C188.688 5.51562 189.113 5.78906 189.465 6.16406C189.816 6.53906 190.082 7.01953 190.262 7.60547C190.449 8.19141 190.543 8.90625 190.543 9.75V18H189.137V9.73828C189.137 8.86328 189.016 8.17969 188.773 7.6875C188.531 7.1875 188.188 6.83203 187.742 6.62109C187.297 6.41016 186.77 6.30469 186.16 6.30469C185.488 6.30469 184.898 6.45312 184.391 6.75C183.891 7.03906 183.469 7.41797 183.125 7.88672C182.789 8.34766 182.531 8.84375 182.352 9.375C182.172 9.89844 182.074 10.3984 182.059 10.875ZM202.414 15.5391V0H203.82V18H202.508L202.414 15.5391ZM193.613 11.7891V11.543C193.613 10.5586 193.727 9.67188 193.953 8.88281C194.18 8.08594 194.504 7.40625 194.926 6.84375C195.355 6.27344 195.871 5.83984 196.473 5.54297C197.074 5.23828 197.754 5.08594 198.512 5.08594C199.254 5.08594 199.91 5.20703 200.48 5.44922C201.051 5.69141 201.539 6.03906 201.945 6.49219C202.359 6.94531 202.691 7.48438 202.941 8.10938C203.199 8.73438 203.387 9.42969 203.504 10.1953V13.3242C203.41 14.043 203.238 14.7031 202.988 15.3047C202.738 15.8984 202.406 16.418 201.992 16.8633C201.578 17.3008 201.078 17.6406 200.492 17.8828C199.914 18.1172 199.246 18.2344 198.488 18.2344C197.738 18.2344 197.062 18.0781 196.461 17.7656C195.859 17.4531 195.348 17.0117 194.926 16.4414C194.504 15.8633 194.18 15.1797 193.953 14.3906C193.727 13.6016 193.613 12.7344 193.613 11.7891ZM195.02 11.543V11.7891C195.02 12.5312 195.094 13.2188 195.242 13.8516C195.391 14.4844 195.617 15.0352 195.922 15.5039C196.227 15.9727 196.613 16.3398 197.082 16.6055C197.551 16.8711 198.105 17.0039 198.746 17.0039C199.551 17.0039 200.227 16.8516 200.773 16.5469C201.32 16.2344 201.758 15.8242 202.086 15.3164C202.414 14.8008 202.652 14.2383 202.801 13.6289V9.98438C202.707 9.57031 202.57 9.14844 202.391 8.71875C202.211 8.28906 201.965 7.89453 201.652 7.53516C201.348 7.16797 200.957 6.875 200.48 6.65625C200.012 6.42969 199.441 6.31641 198.77 6.31641C198.121 6.31641 197.562 6.44922 197.094 6.71484C196.625 6.98047 196.234 7.35156 195.922 7.82812C195.617 8.29688 195.391 8.84766 195.242 9.48047C195.094 10.1133 195.02 10.8008 195.02 11.543ZM223.566 16.7695V18H214.719V16.7695H223.566ZM215.141 0.9375V18H213.699V0.9375H215.141ZM230.926 18.2344C230.098 18.2344 229.336 18.082 228.641 17.7773C227.953 17.4727 227.352 17.043 226.836 16.4883C226.328 15.9336 225.934 15.2773 225.652 14.5195C225.379 13.7539 225.242 12.918 225.242 12.0117V11.5078C225.242 10.5312 225.387 9.64844 225.676 8.85938C225.965 8.07031 226.363 7.39453 226.871 6.83203C227.379 6.26953 227.957 5.83984 228.605 5.54297C229.262 5.23828 229.949 5.08594 230.668 5.08594C231.473 5.08594 232.188 5.23047 232.812 5.51953C233.438 5.80078 233.961 6.20312 234.383 6.72656C234.812 7.24219 235.137 7.85547 235.355 8.56641C235.574 9.26953 235.684 10.0469 235.684 10.8984V11.7539H226.086V10.5586H234.289V10.3945C234.273 9.68359 234.129 9.01953 233.855 8.40234C233.59 7.77734 233.191 7.26953 232.66 6.87891C232.129 6.48828 231.465 6.29297 230.668 6.29297C230.074 6.29297 229.527 6.41797 229.027 6.66797C228.535 6.91797 228.109 7.27734 227.75 7.74609C227.398 8.20703 227.125 8.75781 226.93 9.39844C226.742 10.0312 226.648 10.7344 226.648 11.5078V12.0117C226.648 12.7148 226.75 13.3711 226.953 13.9805C227.164 14.582 227.461 15.1133 227.844 15.5742C228.234 16.0352 228.695 16.3945 229.227 16.6523C229.758 16.9102 230.344 17.0391 230.984 17.0391C231.734 17.0391 232.398 16.9023 232.977 16.6289C233.555 16.3477 234.074 15.9062 234.535 15.3047L235.414 15.9844C235.141 16.3906 234.797 16.7656 234.383 17.1094C233.977 17.4531 233.488 17.7266 232.918 17.9297C232.348 18.1328 231.684 18.2344 230.926 18.2344ZM246.043 14.7656C246.043 14.4219 245.957 14.082 245.785 13.7461C245.613 13.4102 245.281 13.1016 244.789 12.8203C244.305 12.5391 243.59 12.3008 242.645 12.1055C241.941 11.9492 241.312 11.7734 240.758 11.5781C240.211 11.3828 239.75 11.1484 239.375 10.875C239 10.6016 238.715 10.2734 238.52 9.89062C238.324 9.50781 238.227 9.05469 238.227 8.53125C238.227 8.0625 238.328 7.62109 238.531 7.20703C238.742 6.78516 239.039 6.41797 239.422 6.10547C239.812 5.78516 240.281 5.53516 240.828 5.35547C241.383 5.17578 242.004 5.08594 242.691 5.08594C243.668 5.08594 244.504 5.25391 245.199 5.58984C245.902 5.91797 246.438 6.36719 246.805 6.9375C247.18 7.50781 247.367 8.15234 247.367 8.87109H245.973C245.973 8.43359 245.844 8.01953 245.586 7.62891C245.336 7.23828 244.965 6.91797 244.473 6.66797C243.988 6.41797 243.395 6.29297 242.691 6.29297C241.965 6.29297 241.375 6.40234 240.922 6.62109C240.469 6.83984 240.137 7.11719 239.926 7.45312C239.723 7.78906 239.621 8.13672 239.621 8.49609C239.621 8.77734 239.664 9.03516 239.75 9.26953C239.844 9.49609 240.008 9.70703 240.242 9.90234C240.484 10.0977 240.828 10.2812 241.273 10.4531C241.719 10.625 242.297 10.793 243.008 10.957C244.031 11.1836 244.867 11.4609 245.516 11.7891C246.172 12.1094 246.656 12.5078 246.969 12.9844C247.281 13.4531 247.438 14.0234 247.438 14.6953C247.438 15.2188 247.328 15.6992 247.109 16.1367C246.891 16.5664 246.574 16.9375 246.16 17.25C245.754 17.5625 245.262 17.8047 244.684 17.9766C244.113 18.1484 243.473 18.2344 242.762 18.2344C241.691 18.2344 240.785 18.0586 240.043 17.707C239.309 17.3477 238.75 16.8789 238.367 16.3008C237.992 15.7148 237.805 15.0938 237.805 14.4375H239.199C239.246 15.0938 239.453 15.6133 239.82 15.9961C240.188 16.3711 240.637 16.6367 241.168 16.793C241.707 16.9492 242.238 17.0273 242.762 17.0273C243.48 17.0273 244.082 16.9219 244.566 16.7109C245.051 16.5 245.418 16.2227 245.668 15.8789C245.918 15.5352 246.043 15.1641 246.043 14.7656ZM258.207 14.7656C258.207 14.4219 258.121 14.082 257.949 13.7461C257.777 13.4102 257.445 13.1016 256.953 12.8203C256.469 12.5391 255.754 12.3008 254.809 12.1055C254.105 11.9492 253.477 11.7734 252.922 11.5781C252.375 11.3828 251.914 11.1484 251.539 10.875C251.164 10.6016 250.879 10.2734 250.684 9.89062C250.488 9.50781 250.391 9.05469 250.391 8.53125C250.391 8.0625 250.492 7.62109 250.695 7.20703C250.906 6.78516 251.203 6.41797 251.586 6.10547C251.977 5.78516 252.445 5.53516 252.992 5.35547C253.547 5.17578 254.168 5.08594 254.855 5.08594C255.832 5.08594 256.668 5.25391 257.363 5.58984C258.066 5.91797 258.602 6.36719 258.969 6.9375C259.344 7.50781 259.531 8.15234 259.531 8.87109H258.137C258.137 8.43359 258.008 8.01953 257.75 7.62891C257.5 7.23828 257.129 6.91797 256.637 6.66797C256.152 6.41797 255.559 6.29297 254.855 6.29297C254.129 6.29297 253.539 6.40234 253.086 6.62109C252.633 6.83984 252.301 7.11719 252.09 7.45312C251.887 7.78906 251.785 8.13672 251.785 8.49609C251.785 8.77734 251.828 9.03516 251.914 9.26953C252.008 9.49609 252.172 9.70703 252.406 9.90234C252.648 10.0977 252.992 10.2812 253.438 10.4531C253.883 10.625 254.461 10.793 255.172 10.957C256.195 11.1836 257.031 11.4609 257.68 11.7891C258.336 12.1094 258.82 12.5078 259.133 12.9844C259.445 13.4531 259.602 14.0234 259.602 14.6953C259.602 15.2188 259.492 15.6992 259.273 16.1367C259.055 16.5664 258.738 16.9375 258.324 17.25C257.918 17.5625 257.426 17.8047 256.848 17.9766C256.277 18.1484 255.637 18.2344 254.926 18.2344C253.855 18.2344 252.949 18.0586 252.207 17.707C251.473 17.3477 250.914 16.8789 250.531 16.3008C250.156 15.7148 249.969 15.0938 249.969 14.4375H251.363C251.41 15.0938 251.617 15.6133 251.984 15.9961C252.352 16.3711 252.801 16.6367 253.332 16.793C253.871 16.9492 254.402 17.0273 254.926 17.0273C255.645 17.0273 256.246 16.9219 256.73 16.7109C257.215 16.5 257.582 16.2227 257.832 15.8789C258.082 15.5352 258.207 15.1641 258.207 14.7656Z" fill="#F5F3F7"/>
</svg>
