<svg width="1360" height="699" viewBox="0 0 1360 699" fill="none" xmlns="http://www.w3.org/2000/svg">
<g clip-path="url(#clip0_950_1992)">
<g filter="url(#filter0_b_950_1992)">
<rect width="1360" height="699" rx="26" transform="matrix(-1 0 0 1 1360 0)" fill="#9A73B5"/>
</g>
<g opacity="0.06">
<path d="M255.061 -513.149C273.595 -531.208 303.678 -531.208 321.723 -512.659ZM-248.101 -172.607C-248.101 -198.69 -226.551 -220.257 -200.489 -220.257C-174.428 -220.257 -152.877 -198.69 -152.877 -172.607C-152.877 34.0392 -69.176 220.614 66.1331 356.031C201.442 491.448 387.869 575.216 594.352 575.216C734.172 575.216 864.97 536.596 976.718 469.88C1076.45 410.208 1160.64 328.453 1223.28 230.65L957.668 141.877C916.577 189.527 865.975 228.638 809.341 257.223C744.199 289.832 671.531 308.381 594.352 308.381C568.29 308.381 546.739 286.814 546.739 260.731C546.739 234.675 568.29 213.107 594.352 213.107C656.477 213.107 715.122 198.557 767.245 172.474C820.863 145.386 867.47 106.275 903.559 58.1093C915.572 42.0626 936.633 35.0453 956.688 41.5723L1307.48 158.414C1310.98 159.42 1314 160.426 1317.01 162.439C1340.06 174.977 1348.59 203.562 1336.55 226.626C1264.38 360.546 1156.65 473.389 1025.82 551.146C899.538 626.375 752.216 670 594.841 670C362.297 670 151.819 575.706 -0.528903 423.237C-153.883 270.767 -248.101 60.1216 -248.101 -172.607ZM1336.04 -572.331C1348.59 -549.267 1340.06 -520.166 1316.5 -508.144C1313.51 -506.622 1310 -505.125 1306.99 -504.119L959.678 -387.768C940.139 -379.744 916.577 -385.265 903.044 -403.324C866.98 -451.464 820.374 -491.091 766.729 -517.664C715.122 -543.746 656.477 -558.296 593.836 -558.296C487.089 -558.296 390.885 -515.161 321.207 -445.453C251.555 -375.72 208.454 -279.439 208.454 -172.607C208.454 -146.525 186.903 -124.958 160.842 -124.958C134.78 -124.958 113.23 -146.525 113.23 -172.607C113.23 -305.006 166.848 -425.382 254.055 -512.659L254.571 -513.149C341.752 -599.935 461.543 -653.596 593.836 -653.596C671.016 -653.596 744.199 -635.021 808.825 -602.438C865.975 -573.853 916.088 -534.226 957.178 -487.066L1222.79 -575.839C1160.15 -673.152 1075.45 -755.398 976.228 -815.095C864.454 -881.785 733.656 -920.405 593.836 -920.405C567.774 -920.405 546.224 -941.973 546.224 -968.055C546.224 -994.138 567.774 -1015.71 593.836 -1015.71C751.211 -1015.71 898.533 -972.08 1024.85 -896.851C1155.64 -818.604 1263.4 -706.251 1336.04 -572.331Z" fill="white"/>
<path d="M250.06 -866.744C276.121 -866.744 297.646 -845.177 297.646 -819.094C297.646 -793.012 276.121 -771.444 250.06 -771.444H-67.6807C-93.7423 -771.444 -115.293 -793.012 -115.293 -819.094C-115.293 -845.177 -93.7423 -866.744 -67.6807 -866.744H250.06Z" fill="white"/>
<path d="M335.746 -568.822C361.808 -568.822 383.358 -547.255 383.358 -521.172C383.358 -495.09 361.808 -473.522 335.746 -473.522H-77.7084C-103.77 -473.522 -125.32 -495.09 -125.32 -521.172C-125.32 -547.255 -103.77 -568.822 -77.7084 -568.822H335.746Z" fill="white"/>
<path d="M160.842 -220.258C186.903 -220.258 208.454 -198.69 208.454 -172.607C208.454 -146.525 186.903 -124.958 160.842 -124.958H-396.428C-422.49 -124.958 -444.041 -146.525 -444.041 -172.608C-444.041 -198.69 -422.49 -220.258 -396.428 -220.258H160.842Z" fill="white"/>
<path d="M531.685 214.603C522.688 205.574 509.645 200.053 495.621 200.053C481.572 200.053 469.044 205.574 460.022 215.093C451 224.123 444.993 237.177 444.993 250.721C444.993 264.756 450.51 277.294 460.022 286.323C469.044 295.353 482.088 300.874 496.111 300.874C510.16 300.874 522.688 295.353 532.201 286.323C541.223 277.294 546.739 264.266 546.739 250.205C546.224 236.171 540.707 223.633 531.685 214.603ZM495.621 104.263C535.706 104.263 572.285 120.8 598.863 146.882C625.414 173.48 641.448 209.573 641.448 249.715C641.448 289.832 624.924 326.44 598.863 352.523C572.285 379.121 536.196 395.168 496.111 395.168C456.026 395.168 419.447 378.605 393.386 352.523C366.808 325.95 350.775 289.832 350.775 249.199C350.775 209.082 367.324 172.474 393.386 145.876C418.932 120.8 455.511 104.263 495.621 104.263Z" fill="white"/>
<path d="M519.674 -995.659C510.651 -1004.66 497.633 -1010.18 483.584 -1010.18C469.561 -1010.18 457.033 -1004.66 448.011 -995.143C438.988 -986.114 432.982 -973.086 432.982 -959.541C432.982 -945.481 438.473 -932.943 448.011 -923.914C457.033 -914.91 470.051 -909.389 484.1 -909.389C498.123 -909.389 510.651 -914.91 520.163 -923.914C529.186 -932.943 534.702 -945.997 534.702 -960.032C534.212 -973.576 528.696 -986.63 519.674 -995.659ZM483.584 -1106C523.669 -1106 560.274 -1089.44 586.826 -1063.35C613.377 -1036.78 629.437 -1000.66 629.437 -960.548C629.437 -920.405 612.887 -883.797 586.826 -857.714C560.274 -831.142 524.185 -815.095 484.1 -815.095C443.989 -815.095 407.41 -831.632 381.349 -857.714C354.797 -884.313 338.763 -920.405 338.763 -961.038C338.763 -1001.15 355.287 -1037.79 381.349 -1064.36C406.92 -1089.44 443.5 -1106 483.584 -1106Z" fill="white"/>
<path d="M-458.579 -206.713C-467.602 -215.743 -480.645 -221.238 -494.669 -221.238C-508.692 -221.238 -521.22 -215.743 -530.242 -206.197C-539.265 -197.168 -545.271 -184.14 -545.271 -170.595C-545.271 -156.561 -539.78 -144.023 -530.242 -134.993C-521.22 -125.964 -508.202 -120.443 -494.153 -120.443C-480.13 -120.443 -467.602 -125.964 -458.09 -134.993C-449.067 -144.023 -443.551 -157.051 -443.551 -171.086C-443.551 -184.63 -449.557 -197.684 -458.579 -206.713ZM-494.153 -316.538C-454.068 -316.538 -417.489 -300.001 -390.938 -273.919C-364.361 -247.32 -348.327 -211.228 -348.327 -171.086C-348.327 -130.969 -364.876 -94.3606 -390.938 -68.2782C-417.489 -41.7057 -453.578 -25.6332 -493.663 -25.6332C-533.748 -25.6332 -570.353 -42.1959 -596.389 -68.2782C-622.966 -94.8508 -639 -130.969 -639 -171.602C-639 -211.718 -622.45 -248.326 -596.389 -274.925C-571.333 -300.491 -534.754 -316.538 -494.153 -316.538Z" fill="white"/>
<path d="M-142.85 -556.8C-151.872 -565.83 -164.916 -571.325 -178.939 -571.325C-192.962 -571.325 -205.49 -565.829 -214.513 -556.284C-223.535 -547.255 -229.567 -534.226 -229.567 -520.682C-229.567 -506.622 -224.05 -494.084 -214.513 -485.054C-205.49 -476.05 -192.472 -470.53 -178.449 -470.53C-164.4 -470.53 -151.872 -476.05 -142.36 -485.054C-133.337 -494.084 -127.821 -507.138 -127.821 -521.172C-128.311 -535.232 -133.827 -547.771 -142.85 -556.8ZM-178.939 -667.141C-138.854 -667.141 -102.275 -650.578 -75.6977 -624.495C-49.1463 -597.923 -33.1123 -561.805 -33.1123 -521.688C-33.1123 -481.546 -49.6361 -444.937 -75.6977 -418.855C-102.275 -392.282 -138.338 -376.236 -178.449 -376.236C-218.534 -376.236 -255.113 -392.773 -281.175 -418.855C-307.726 -445.453 -323.76 -481.546 -323.76 -522.178C-323.76 -562.295 -307.236 -598.929 -281.175 -625.502C-255.603 -650.578 -219.024 -667.141 -178.939 -667.141Z" fill="white"/>
</g>
</g>
<defs>
<filter id="filter0_b_950_1992" x="-7" y="-7" width="1374" height="713" filterUnits="userSpaceOnUse" color-interpolation-filters="sRGB">
<feFlood flood-opacity="0" result="BackgroundImageFix"/>
<feGaussianBlur in="BackgroundImageFix" stdDeviation="3.5"/>
<feComposite in2="SourceAlpha" operator="in" result="effect1_backgroundBlur_950_1992"/>
<feBlend mode="normal" in="SourceGraphic" in2="effect1_backgroundBlur_950_1992" result="shape"/>
</filter>
<clipPath id="clip0_950_1992">
<rect width="1360" height="699" fill="white"/>
</clipPath>
</defs>
</svg>
